<?xml version="1.0" encoding="UTF-8"?>
<svg id="Layer_1" data-name="Layer 1" xmlns="http://www.w3.org/2000/svg" viewBox="0 0 9.92 15.73">
  <defs>
    <style>
      .cls-1 {
        fill: #00a751;
      }

      .cls-2 {
        fill: #3d5165;
      }
    </style>
  </defs>
  <path class="cls-1" d="M8.45,7.44c1.36-1.87.95-4.51-.92-5.87-1.07-.78-2.38-.96-3.57-.64-.11.03-.22.05-.33.09-.03.01-.06.03-.08.04-.03.01-.05.03-.08.04-.15.06-.29.13-.43.2-.12.07-.24.15-.36.23-.38.26-.73.58-1.02.97-1.36,1.87-.95,4.51.92,5.87.94.69,2.08.92,3.15.75.12-.02.23-.06.34-.09.11-.03.23-.05.34-.09,0,0,.02,0,.02,0,.11-.04.21-.09.31-.14.1-.05.21-.09.31-.15.53-.29,1.02-.68,1.4-1.21Z"/>
  <path class="cls-2" d="M8.8,7.68c1.54-2.12,1.07-5.09-1.04-6.64C5.64-.5,2.66-.03,1.12,2.08S.05,7.18,2.16,8.72c1.16.85,2.58,1.07,3.88.76l3.02,6.12.54-.24-2.51-6.26c.65-.33,1.24-.79,1.7-1.42ZM6.42,8.19c-.09.04-.18.09-.27.12,0,0-.01,0-.02,0-.1.03-.2.05-.29.08-.1.02-.19.06-.29.08-.93.15-1.91-.05-2.72-.65-1.62-1.18-1.98-3.46-.8-5.08.25-.34.55-.61.88-.84.1-.07.2-.14.31-.2.12-.07.24-.12.37-.18.02,0,.05-.02.07-.03.02,0,.05-.02.07-.03.09-.03.19-.05.29-.07,1.03-.28,2.16-.12,3.09.55,1.62,1.18,1.98,3.46.8,5.08-.33.45-.75.79-1.21,1.04-.09.05-.18.09-.27.13Z"/>
</svg>